<svg xmlns="http://www.w3.org/2000/svg" viewBox="0 0 512 512"><path d="M503.467 0H8.533A8.53 8.53 0 000 8.533v494.933A8.53 8.53 0 008.533 512h494.933a8.53 8.53 0 008.533-8.533V8.533A8.53 8.53 0 00503.467 0zM290.133 392.533c0 42.342-34.449 76.8-76.8 76.8s-76.8-34.458-76.8-76.8c0-4.71 3.814-8.533 8.533-8.533s8.533 3.823 8.533 8.533c0 32.939 26.803 59.733 59.733 59.733 32.93 0 59.733-26.795 59.733-59.733v-204.8a8.53 8.53 0 018.533-8.533 8.53 8.53 0 018.533 8.533v204.8zm102.4-76.8c42.351 0 76.8 34.458 76.8 76.8s-34.449 76.8-76.8 76.8-76.8-34.458-76.8-76.8a8.53 8.53 0 018.533-8.533 8.53 8.53 0 018.533 8.533c0 32.939 26.803 59.733 59.733 59.733 32.93 0 59.733-26.795 59.733-59.733 0-32.939-26.803-59.733-59.733-59.733-42.351 0-76.8-34.458-76.8-76.8s34.449-76.8 76.8-76.8 76.8 34.458 76.8 76.8a8.53 8.53 0 01-8.533 8.533 8.53 8.53 0 01-8.533-8.533c0-32.939-26.803-59.733-59.733-59.733-32.93 0-59.733 26.795-59.733 59.733s26.803 59.733 59.733 59.733z"/></svg>