<svg xmlns="http://www.w3.org/2000/svg" viewBox="0 0 512 512"><path d="M467 0H45C20.187 0 0 20.187 0 45v422c0 24.813 20.187 45 45 45h422c24.813 0 45-20.187 45-45V45c0-24.813-20.187-45-45-45zm15 467c0 8.271-6.729 15-15 15H45c-8.271 0-15-6.729-15-15V45c0-8.271 6.729-15 15-15h422c8.271 0 15 6.729 15 15v422z M256 361H151V136c0-8.284-6.716-15-15-15s-15 6.716-15 15v240c0 8.284 6.716 15 15 15h120c8.284 0 15-6.716 15-15s-6.716-15-15-15zM376 211c-16.871 0-32.456 5.603-45 15.041V226c0-8.284-6.716-15-15-15s-15 6.716-15 15v150c0 8.284 6.716 15 15 15s15-6.716 15-15v-90c0-24.813 20.187-45 45-45 8.284 0 15-6.716 15-15s-6.716-15-15-15z"/></svg>