<svg xmlns="http://www.w3.org/2000/svg" viewBox="0 0 16.172 16.172"><g fill="#030104"><path d="M13.043 6.367c-.237 0-.398.022-.483.047v1.523c.101.022.223.03.391.03.621 0 1.004-.313 1.004-.842-.001-.474-.33-.758-.912-.758z"/><path d="M15.14 0H1.033C.463 0 0 .462 0 1.032V15.14c0 .568.462 1.031 1.033 1.031H15.14c.57 0 1.032-.463 1.032-1.031V1.032C16.172.462 15.71 0 15.14 0zM4.904 8.32c-.398.375-.988.543-1.677.543-.153 0-.291-.008-.398-.023v1.846H1.673V5.594c.36-.061.865-.107 1.578-.107.719 0 1.233.139 1.577.414.33.261.552.689.552 1.194s-.169.934-.476 1.225zm5.478 2.366H9.218v-2.16H7.297v2.16H6.125v-5.16h1.172v1.983h1.921V5.526h1.164v5.16zm4.253-2.366c-.397.375-.987.543-1.677.543-.152 0-.291-.008-.398-.023v1.846h-1.155V5.594c.359-.061.864-.107 1.577-.107.72 0 1.232.139 1.577.414.33.261.552.689.552 1.194-.001.505-.169.934-.476 1.225z"/><path d="M3.312 6.367a1.88 1.88 0 00-.483.047v1.523c.1.022.222.03.391.03.62 0 1.003-.313 1.003-.842 0-.474-.329-.758-.911-.758z"/></g></svg>