<svg xmlns="http://www.w3.org/2000/svg" viewBox="0 0 512 512"><path d="M467 0H45C20.187 0 0 20.187 0 45v423c0 24.673 19.767 44 45 44h422c25.233 0 45-19.327 45-44V45c0-24.813-20.187-45-45-45zm15 468c0 7.981-6.449 14-15 14H45c-8.551 0-15-6.019-15-14V45c0-8.271 6.729-15 15-15h422c8.271 0 15 6.729 15 15v423z M226 121h-90c-8.284 0-15 6.716-15 15v240c0 8.284 6.716 15 15 15s15-6.716 15-15V271h75c41.355 0 75-33.645 75-75s-33.645-75-75-75zm0 120h-75v-90h75c24.813 0 45 20.187 45 45s-20.187 45-45 45zM406 211c-16.871 0-32.456 5.603-45 15.041V226c0-8.284-6.716-15-15-15s-15 6.716-15 15v150c0 8.284 6.716 15 15 15s15-6.716 15-15v-90c0-24.813 20.187-45 45-45 8.284 0 15-6.716 15-15s-6.716-15-15-15z"/></svg>