<svg height="512" width="512" xmlns="http://www.w3.org/2000/svg"><path d="M35.164 383.5c23.128 40.061 89.532 32.99 134.607 21.706C182.418 449.865 209.559 512 256 512s73.582-62.134 86.229-106.794c44.976 11.259 111.534 18.26 134.607-21.706 23.147-40.091-16.387-94.248-48.577-127.5 32.242-33.307 71.71-87.434 48.577-127.5-23.127-40.061-89.714-32.944-134.607-21.706C329.583 62.136 302.441 0 256 0s-73.582 62.134-86.229 106.794C124.893 95.56 58.294 88.434 35.164 128.5 12.017 168.591 51.55 222.746 83.741 256c-32.242 33.306-71.71 87.433-48.577 127.5zm25.981-15c-14.121-24.459 24.434-71.274 44.233-91.733 14.6 13.078 30.814 25.941 48.291 38.303 1.959 21.309 4.978 41.791 8.985 61.002-27.534 6.892-87.384 16.896-101.509-7.572zM218.5 191.048a625.969 625.969 0 0137.5-19.997 625.395 625.395 0 0137.5 19.997 625.535 625.535 0 0136.072 22.48C330.513 227.394 331 241.593 331 256s-.487 28.606-1.428 42.472a625.535 625.535 0 01-36.072 22.48 625.969 625.969 0 01-37.5 19.997 625.395 625.395 0 01-37.5-19.997 625.535 625.535 0 01-36.072-22.48C181.487 284.606 181 270.407 181 256s.487-28.606 1.428-42.472a626.086 626.086 0 0136.072-22.48zm-32.205-15.693c1.454-10.652 3.2-20.998 5.225-30.97 9.655 3.219 19.499 6.873 29.468 10.939a662.548 662.548 0 00-17.488 9.743 665.764 665.764 0 00-17.205 10.288zm104.717-20.031c9.969-4.065 19.813-7.72 29.468-10.939 2.026 9.971 3.771 20.317 5.225 30.97a662.915 662.915 0 00-17.205-10.287 661.324 661.324 0 00-17.488-9.744zm69.683 80.659c8.491 6.59 16.565 13.276 24.169 20.017-7.604 6.74-15.678 13.427-24.169 20.017.199-6.628.305-13.302.305-20.017s-.106-13.389-.305-20.017zm-34.99 100.662c-1.455 10.652-3.2 20.998-5.225 30.97-9.655-3.219-19.499-6.873-29.468-10.939a662.548 662.548 0 0017.488-9.743 665.764 665.764 0 0017.205-10.288zm-104.717 20.031c-9.969 4.065-19.813 7.72-29.468 10.939-2.026-9.971-3.771-20.317-5.225-30.97a662.915 662.915 0 0017.205 10.287 661.324 661.324 0 0017.488 9.744zm-69.683-80.659c-8.491-6.59-16.565-13.276-24.169-20.017 7.604-6.74 15.678-13.427 24.169-20.017-.199 6.628-.305 13.302-.305 20.017s.106 13.389.305 20.017zM256 482c-28.341 0-49.687-57.82-57.423-85.142 18.659-6.111 37.942-13.734 57.423-22.706 19.481 8.972 38.764 16.595 57.423 22.706C305.712 424.092 284.365 482 256 482zm194.856-113.5c-14.126 24.467-73.979 14.463-101.509 7.572 4.007-19.211 7.026-39.693 8.985-61.002 17.477-12.362 33.691-25.226 48.291-38.303 19.774 20.434 58.358 67.266 44.233 91.733zm0-225c14.121 24.459-24.434 71.274-44.233 91.733-14.6-13.078-30.814-25.941-48.291-38.303-1.959-21.309-4.978-41.791-8.985-61.002 28.661-7.174 87.524-16.649 101.509 7.572zM256 30c28.341 0 49.687 57.82 57.423 85.142-18.659 6.111-37.942 13.734-57.423 22.706-19.481-8.972-38.764-16.595-57.423-22.706C206.288 87.907 227.635 30 256 30zM61.145 143.5c14.064-24.361 73.255-14.644 101.509-7.572-4.007 19.211-7.026 39.693-8.985 61.002-17.477 12.362-33.691 25.226-48.291 38.303-19.776-20.435-58.359-67.266-44.233-91.733z"/><path d="M256 301c24.813 0 45-20.187 45-45s-20.187-45-45-45-45 20.187-45 45 20.187 45 45 45zm0-60c8.271 0 15 6.729 15 15s-6.729 15-15 15-15-6.729-15-15 6.729-15 15-15z"/></svg>