<svg xmlns="http://www.w3.org/2000/svg" viewBox="0 0 234.49 233.18"><defs><linearGradient id="linear-gradient" x1="87.3" y1="132.44" x2="104.57" y2="75.64" gradientUnits="userSpaceOnUse"><stop offset="0" stop-color="#1c75bc"/><stop offset=".28" stop-color="#2077bc"/><stop offset=".54" stop-color="#2b7ebc"/><stop offset=".8" stop-color="#3e88bc"/><stop offset="1" stop-color="#5394bc"/></linearGradient><style>.cls-1{opacity:.4}.cls-2,.cls-3{fill:#fff}.cls-3{opacity:.2}.cls-5{fill:#ed5561}.cls-6{fill:#bbcee1}.cls-9{fill:#1c75bc}.cls-10{fill:#9d4d36}.cls-11{fill:#a7bcce}.cls-14{fill:#0f4463}.cls-15{fill:#0b3b56}.cls-16{fill:#1f5e77}.cls-17{fill:#07304b}.cls-20{fill:#f4c5a2}.cls-23{fill:#91a6b7}.cls-25{fill:#50e85e}.cls-28{fill:#8444b2}.cls-34{fill:#f5d012}.cls-36{fill:#edf0f8}.cls-40{fill:#dfbab8}</style></defs><g id="Calque_2" data-name="Calque 2"><g id="OBJECTS"><g class="cls-1"><path class="cls-2" d="M112.83 28.51v1.07l4.5 2.59V31.1l-4.5-2.59zM112.83 30.46v1.08l4.5 2.59v-1.07l-4.5-2.6zM112.83 32.42v1.07l4.5 2.6v-1.08l-4.5-2.59zM146.77 55.02v-1.07l-27.75-16.01v1.07l27.75 16.01zM112.83 34.38v1.07l4.5 2.59v-1.07l-4.5-2.59zM112.83 36.33v1.07l4.5 2.6v-1.08l-4.5-2.59zM146.77 56.98v-1.07L119.02 39.9v1.07l27.75 16.01zM112.83 42.2v1.07l4.5 2.59v-1.07l-4.5-2.59zM112.83 44.15v1.07l4.5 2.6v-1.07l-4.5-2.6zM112.83 51.98v1.07l4.5 2.59v-1.07l-4.5-2.59zM112.83 53.93V55l4.5 2.59v-1.07l-4.5-2.59zM136.52 67.6l-17.5-10.1v1.07l17.5 10.1V67.6zM137.45 68.13v1.07l9.32 5.38v-1.07l-9.32-5.38zM127.81 60.62l-8.79-5.08v1.07l8.79 5.08v-1.07zM128.74 61.15v1.07l18.03 10.4v-1.07l-18.03-10.4zM144.4 64.32v1.07l2.37 1.36v-1.07l-2.37-1.36zM131.49 54.91l-12.47-7.19v1.07l12.47 7.19v-1.07zM126.38 36.32l-7.36-4.24v1.07l7.36 4.24v-1.07zM138.44 43.28l-11.14-6.43v1.07l11.14 6.43v-1.07zM131.95 41.49l-7.85-4.52v1.07l7.85 4.52v-1.07zM140.18 46.24l-7.31-4.22v1.07l7.31 4.22v-1.07zM141.1 46.77v1.07l5.67 3.27v-1.07l-5.67-3.27zM120.47 36.82v1.07l5.91 3.41v-1.07l-5.91-3.41zM144.46 50.66l-17.16-9.89v1.07l17.16 9.89v-1.07zM134.63 50.86l-11.21-6.46v1.07l11.21 6.46v-1.07zM144.46 56.53l-8.9-5.13v1.07l8.9 5.13v-1.07zM143.47 61.83l-11.06-6.38v1.07l11.06 6.38v-1.07zM137.45 60.31v1.07l6.02 3.47v-1.07l-6.02-3.47zM121.19 50.93l-2.17-1.25v1.07l2.17 1.25v-1.07zM125.25 53.27v1.07l11.27 6.5v-1.07l-11.27-6.5zM124.33 52.74l-2.22-1.28v1.07l2.22 1.28v-1.07zM134.44 60.53l-12.33-7.11v1.07l12.33 7.11v-1.07z"/></g><g class="cls-1"><path class="cls-2" d="M136.81 10.8L118.16 0v.95l18.65 10.8v-.95zM118.16 2.81l28.61 16.55v-.95L118.16 1.86v.95zM138.06 11.5v.95l8.71 5.05v-.95l-8.71-5.05zM136.81 14.43l-18.65-10.8v.95l18.65 10.8v-.95zM118.16 6.45l28.61 16.54v-.95L118.16 5.5v.95zM138.06 16.08l8.71 5.05v-.95l-8.71-5.04v.94zM136.81 20.43l-18.65-10.8v.95l18.65 10.8v-.95zM118.16 12.45l28.61 16.54v-.95L118.16 11.5v.95zM138.06 22.08l8.71 5.05v-.95l-8.71-5.04v.94zM136.81 24.07l-18.65-10.8v.95l18.65 10.8v-.95zM118.16 16.08l28.61 16.55v-.95l-28.61-16.55v.95zM138.06 25.72l8.71 5.04v-.94l-8.71-5.05v.95zM136.81 30.07l-18.65-10.8v.95l18.65 10.8v-.95zM118.16 22.08l28.61 16.55v-.95l-28.61-16.55v.95zM138.06 31.72l8.71 5.04v-.95l-8.71-5.04v.95zM136.81 33.7l-18.65-10.8v.95l18.65 10.8v-.95zM118.16 25.71l28.61 16.55v-.95l-28.61-16.55v.95zM138.06 35.35l8.71 5.05v-.95l-8.71-5.05v.95z"/></g><path class="cls-3" d="M86.5 24.38l-13.93-8a1 1 0 00-1.53.89V33.9a2.27 2.27 0 001.14 2l13.93 8.05a1 1 0 001.56-.9V26.41a2.33 2.33 0 00-1.17-2.03z"/><path d="M80.32 38.47L62.06 27.93a1.73 1.73 0 00-1.83.07l-4 2.32 1.86 2.53.7.79v18.1a3 3 0 001.5 2.61L74 62.25l.14.76 2.79 3.91 4.29-2.52a1.37 1.37 0 00.66-1.18v-22a3.12 3.12 0 00-1.56-2.75z" fill="#f4767a"/><path class="cls-5" d="M76.05 41L57.57 30.32a1.35 1.35 0 00-2 1.17v22.12a3 3 0 001.51 2.61L75.53 66.9a1.38 1.38 0 002.08-1.2v-22a3.12 3.12 0 00-1.56-2.7z"/><path class="cls-6" d="M76.91 66.91z"/><path d="M77.61 65.7v-22a3.17 3.17 0 00-.21-1.06l4.28-2.46a2.89 2.89 0 01.2 1v22a1.37 1.37 0 01-.66 1.18l-4.25 2.5a1.38 1.38 0 00.64-1.16z" fill="#d8395a"/><path class="cls-2" d="M59.94 40.9l-2.25-1.29v8.08l1.49.86v-2.87l.64.37a2.54 2.54 0 002 .48c.47-.2.71-.72.71-1.59a4 4 0 00-.66-2.28 5.76 5.76 0 00-1.93-1.76zm.75 3.94a1.41 1.41 0 01-1-.28l-.49-.29v-2.4l.68.4a2.51 2.51 0 01.89.8 2 2 0 01.23 1.06c0 .4-.08.63-.31.71zM67.75 48.59l-2.78-1.61.01-3.17-1.5-.86-.02 8.09 1.49.86.01-3.49 2.79 1.61-.01 3.49 1.49.86.02-8.09-1.49-.86-.01 3.17zM74.82 50.13a5.63 5.63 0 00-1.94-1.75l-2.25-1.3v8.08l1.47.84v-2.85l.64.37a2.5 2.5 0 002 .48c.47-.19.71-.72.71-1.59a4 4 0 00-.63-2.28zm-1.19 2.18a1.37 1.37 0 01-1-.28l-.49-.28v-2.4l.68.39a2.54 2.54 0 01.9.8A2.07 2.07 0 0174 51.6c0 .4-.14.63-.37.71z"/><g class="cls-1"><path class="cls-2" d="M37.19 39.29v1.07l4.5 2.6v-1.07l-4.5-2.6zM37.19 41.25v1.07l4.5 2.59v-1.07l-4.5-2.59zM37.19 43.2v1.07l4.5 2.6V45.8l-4.5-2.6zM71.13 65.8v-1.07l-27.75-16v1.07l27.75 16zM37.19 45.16v1.07l4.5 2.59v-1.07l-4.5-2.59zM37.19 47.11v1.08l4.5 2.59v-1.07l-4.5-2.6zM71.13 67.76v-1.07L43.38 50.68v1.07l27.75 16.01zM37.19 52.98v1.07l4.5 2.6v-1.07l-4.5-2.6zM37.19 54.94v1.07l4.5 2.59v-1.07l-4.5-2.59zM37.19 62.76v1.07l4.5 2.59v-1.07l-4.5-2.59zM37.19 64.71v1.07l4.5 2.6v-1.07l-4.5-2.6zM60.88 78.38l-17.5-10.1v1.07l17.5 10.1v-1.07zM61.81 78.91v1.07l9.32 5.38v-1.07l-9.32-5.38zM52.17 71.4l-8.79-5.07v1.07l8.79 5.07V71.4zM53.09 71.93V73l18.04 10.4v-1.07l-18.04-10.4zM68.76 75.1v1.07l2.37 1.37v-1.07l-2.37-1.37zM55.84 65.7l-12.46-7.2v1.07l12.46 7.2V65.7zM50.74 47.1l-7.36-4.24v1.07l7.36 4.24V47.1zM62.8 54.06l-11.14-6.42v1.07l11.14 6.42v-1.07zM56.31 52.27l-7.85-4.52v1.07l7.85 4.52v-1.07zM64.54 57.02l-7.31-4.21v1.07l7.31 4.21v-1.07zM65.46 57.55v1.07l5.67 3.27v-1.07l-5.67-3.27zM44.83 47.61v1.07l5.91 3.41v-1.07l-5.91-3.41zM68.82 61.44l-17.16-9.89v1.07l17.16 9.9v-1.08zM58.99 61.65l-11.21-6.47v1.07l11.21 6.47v-1.07zM68.82 67.31l-8.9-5.13v1.07l8.9 5.13v-1.07zM67.83 72.61l-11.06-6.38v1.07l11.06 6.38v-1.07zM61.81 71.09v1.07l6.02 3.48v-1.07l-6.02-3.48zM45.55 61.71l-2.17-1.25v1.07l2.17 1.25v-1.07zM49.61 64.06v1.07l11.27 6.5v-1.07l-11.27-6.5zM48.69 63.52l-2.22-1.28v1.07l2.22 1.28v-1.07zM58.8 71.31L46.47 64.2v1.07l12.33 7.11v-1.07z"/></g><path class="cls-3" d="M171.29 53.21l-13.93-8a1 1 0 00-1.53.88v16.64a2.28 2.28 0 001.13 2l13.93 8a1 1 0 001.57-.91V55.24a2.35 2.35 0 00-1.17-2.03zM190.31 21l-13.93-8a1 1 0 00-1.53.89V30.5a2.27 2.27 0 001.14 2l13.93 8.05a1 1 0 001.56-.9V23a2.33 2.33 0 00-1.17-2zM233.32 108.16l-13.93-8a1 1 0 00-1.53.89v16.67a2.27 2.27 0 001.14 2l13.92 8a1 1 0 001.57-.9v-16.63a2.33 2.33 0 00-1.17-2.03zM112.07 67.14l-13.92-8a1 1 0 00-1.53.88v16.64a2.28 2.28 0 001.13 2l13.93 8.05a1 1 0 001.57-.91V69.17a2.34 2.34 0 00-1.18-2.03z"/><path d="M59.64 204.16c-3.7 0-2.49-2.77-2.49-2.77-5.48-1.68-8.18-.75-8.18-.74a25.44 25.44 0 00-.87 8.93c0 .58.4.93.94 1.13 3 1.1 5.64 1.83 11.13 1.29 4-.39 8.33-4.14 7.36-8-.61-2.38-4.14.13-7.89.16z" fill="#933e31"/><path class="cls-9" d="M58.05 169.4c-1.08-1.41-2.94-2.61-6-1.8L19 174l1.24 8.49a13.17 13.17 0 0013.93 4.14 51.63 51.63 0 0014.62-6.67l-1.12 23.43a13.17 13.17 0 009.81-1.18c.77-.47 1.49-23.06 1.73-28.86a5.31 5.31 0 00-1.16-3.95z"/><path class="cls-10" d="M75.51 210.94c-3.84 0-2.58-2.88-2.58-2.88-5.7-1.74-8.5-.77-8.5-.77a26.55 26.55 0 00-.91 9.28c0 .6.42 1 1 1.17 3.07 1.14 5.86 1.9 11.56 1.34 4.2-.41 8.65-4.3 7.64-8.29-.65-2.48-4.32.11-8.21.15z"/><path class="cls-6" d="M37.93 201.62L9.55 185.21v4l28.39 16.36-.01-3.95z"/><path class="cls-2" d="M35.35 170.39l-25.8 14.82 28.38 16.41 25.83-14.84-28.41-16.39z"/><path class="cls-11" d="M63.76 186.78l-25.83 14.84.01 3.95 25.82-14.94v-3.85z"/><path d="M73.86 174.84c-1.12-1.46-3-2.71-6.25-1.86l-34.33 6.62 1.29 8.82a13.68 13.68 0 0014.43 4.3 53.45 53.45 0 0015.18-6.93l-1.16 24.33a13.66 13.66 0 0010.18-1.23c.81-.48 1.56-23.94 1.8-30a5.49 5.49 0 00-1.14-4.05z" fill="#2a87c6"/><path d="M12.52 125.18l58.62-34a8 8 0 018 0l92.34 53.42a3.53 3.53 0 010 6.12L114.21 184a9.55 9.55 0 01-9.55 0l-92.13-53.3a3.17 3.17 0 01-.01-5.52z" fill="#e8ebf5"/><path class="cls-11" d="M12.53 130.67L104.66 184a9.55 9.55 0 009.55 0l57.31-33.27a3.49 3.49 0 001.76-3.05v4.47a3.49 3.49 0 01-1.75 3l-57.31 33.27a9.53 9.53 0 01-9.55 0l-92.13-53.3a3.14 3.14 0 01-1.59-2.76v-4.38a3.14 3.14 0 001.58 2.69z"/><path class="cls-6" d="M12.53 130.67L104.66 184a9.57 9.57 0 004.36 1.25v4.41a9.45 9.45 0 01-4.36-1.25l-92.13-53.3a3.14 3.14 0 01-1.59-2.76v-4.38a3.14 3.14 0 001.59 2.7z"/><path class="cls-14" d="M55.83 137.49l10-5.76a1.51 1.51 0 011.51 0L98 149.5a.67.67 0 010 1.15l-9.71 5.62a1.79 1.79 0 01-1.79 0l-30.67-17.75a.6.6 0 010-1.03z"/><path class="cls-15" d="M55.83 138.52l30.69 17.75a1.79 1.79 0 001.79 0l9.69-5.62a.66.66 0 00.33-.57v1.17a.67.67 0 01-.33.56l-9.71 5.62a1.79 1.79 0 01-1.79 0L55.83 139.7a.55.55 0 01-.29-.52V138a.59.59 0 00.29.52z"/><path class="cls-16" d="M65.67 133.35l1.24-.72 1.42.81-1.24.72-1.42-.81zM67.43 134.37l1.25-.73 1.41.82-1.24.72-1.42-.81zM69.2 135.38l1.24-.72 1.42.82-1.24.72-1.42-.82zM70.96 136.4l1.25-.72 1.42.81-1.25.72-1.42-.81zM72.73 137.42l1.25-.73 1.41.82-1.24.72-1.42-.81zM74.5 138.43l1.24-.72 1.42.82-1.24.72-1.42-.82zM76.26 139.45l1.25-.72 1.41.81-1.24.72-1.42-.81zM78.03 140.47l1.24-.73 1.42.82-1.24.72-1.42-.81zM79.79 141.48l1.25-.72 1.41.82-1.24.72-1.42-.82zM81.56 142.5l1.25-.72 1.41.81-1.24.72-1.42-.81zM83.33 143.51l1.24-.72 1.42.82-1.24.72-1.42-.82zM85.09 144.53l1.25-.72 1.41.82-1.24.71-1.42-.81zM88.1 144.82l1.42.82-1.24.72-1.42-.81 1.24-.73zM65.47 135.1l-1.41-.82 1.24-.72 1.42.82-1.25.72zM68.48 135.39l-1.24.72-1.42-.81 1.25-.72 1.41.81zM70.25 136.41l-1.24.72-1.42-.81 1.24-.73 1.42.82zM72.01 137.43l-1.24.72-1.42-.82 1.25-.72 1.41.82zM73.78 138.44l-1.24.72-1.42-.81 1.24-.72 1.42.81zM75.55 139.46l-1.25.72-1.42-.81 1.25-.73 1.42.82zM77.31 140.48l-1.24.72-1.42-.82 1.25-.72 1.41.82zM79.08 141.49l-1.24.72-1.42-.81 1.24-.72 1.42.81zM80.84 142.51l-1.24.72-1.42-.81 1.25-.73 1.41.82zM82.61 143.53l-1.24.72-1.42-.82 1.24-.72 1.42.82zM84.38 144.54l-1.25.72-1.42-.81 1.25-.72 1.42.81zM86.14 145.56l-1.24.72-1.42-.81 1.24-.73 1.42.82zM86.49 145.76l1.42.81-1.24.73-1.42-.82 1.24-.72zM63.86 136.03l-1.42-.81 1.25-.72 1.41.81-1.24.72zM66.87 136.33l-1.24.72-1.42-.82 1.24-.72 1.42.82zM65.97 137.25l1.25-.72 1.42.81-1.25.72-1.42-.81zM70.4 138.36l-1.24.72-1.42-.81 1.25-.73 1.41.82zM72.17 139.38l-1.24.72-1.42-.82 1.24-.72 1.42.82zM73.93 140.39l-1.24.72-1.42-.81 1.25-.72 1.41.81zM75.7 141.41l-1.24.72-1.42-.81 1.24-.73 1.42.82zM77.47 142.43l-1.25.72-1.42-.82 1.25-.72 1.42.82zM79.23 143.44l-1.24.72-1.42-.81 1.25-.72 1.41.81zM81 144.46l-1.24.72-1.42-.81 1.24-.73 1.42.82zM82.76 145.48l-1.24.72-1.42-.82 1.25-.72 1.41.82zM81.87 146.4l1.24-.72 1.42.81-1.24.72-1.42-.81zM84.88 146.69l1.42.82-1.25.72-1.42-.82 1.25-.72zM62.25 136.97l-1.42-.82 1.25-.72 1.41.82-1.24.72zM62.6 137.17l1.24-.73 1.42.82-1.24.72-1.42-.81zM64.36 138.18l1.25-.72 1.41.82-1.24.72-1.42-.82zM66.13 139.2l1.25-.72 1.41.81-1.24.72-1.42-.81zM67.89 140.22l1.25-.73 1.42.82-1.25.72-1.42-.81zM69.66 141.23l1.25-.72 1.41.82-1.24.72-1.42-.82zM71.43 142.25l1.24-.72 1.42.81-1.24.72-1.42-.81zM73.19 143.27l1.25-.73 1.41.82-1.24.72-1.42-.81zM74.96 144.28l1.24-.72 1.42.82-1.24.72-1.42-.82zM76.72 145.3l1.25-.72 1.42.81-1.25.72-1.42-.81zM78.49 146.32l1.25-.73 1.41.82-1.24.72-1.42-.81zM80.26 147.33l1.24-.72 1.42.82-1.24.72-1.42-.82zM83.27 147.63l1.41.81-1.24.72-1.42-.81 1.25-.72zM60.64 137.9l-1.42-.81 1.25-.73 1.41.82-1.24.72zM60.98 138.1l1.25-.72 1.42.81-1.24.72-1.43-.81zM62.75 139.12l1.25-.72 1.41.81-1.24.72-1.42-.81zM64.52 140.13l1.24-.72 1.42.82-1.24.72-1.42-.82zM66.28 141.15l1.25-.72 1.41.82-1.24.72-1.42-.82zM68.05 142.17l1.25-.73 1.41.82-1.24.72-1.42-.81zM69.81 143.18l1.25-.72 1.42.82-1.25.72-1.42-.82zM71.58 144.2l1.25-.72 1.41.81-1.24.72-1.42-.81zM73.35 145.22l1.24-.73 1.42.82-1.24.72-1.42-.81zM75.11 146.23l1.25-.72 1.41.82-1.24.72-1.42-.82zM76.88 147.25l1.24-.72 1.42.81-1.24.72-1.42-.81zM78.64 148.27l1.25-.73 1.42.82-1.25.72-1.42-.81zM81.66 148.56l1.41.82-1.24.72-1.42-.82 1.25-.72zM58.85 137.3l1.42.81-1.24.72-1.42-.81 1.24-.72zM62.03 139.13l-1.24.72-1.42-.82 1.25-.72 1.41.82zM63.8 140.15l-1.24.72-1.42-.82 1.24-.72 1.42.82zM65.57 141.16l-1.24.72-1.42-.81 1.24-.73 1.42.82zM67.33 142.18l-1.24.72-1.42-.82 1.25-.72 1.41.82zM69.1 143.19l-1.24.72-1.42-.81 1.24-.72 1.42.81zM69.45 143.4l1.76 1.01h.01l.34.2 1.42.82.72.41 1.05.6 1.11.65 2.07 1.19-1.24.72-2.16-1.25-1.03-.58-1.07-.62-.7-.4h.01l-1.4-.8-.37-.22-1.77-1.01 1.25-.72zM79.69 149.29l-1.24.72-1.42-.81 1.25-.72 1.41.81zM81.46 150.31l-1.24.72-1.42-.81 1.24-.73 1.42.82zM90.39 147.58l1.24-.72 1.42.81-1.24.72-1.42-.81zM92.16 148.6l1.24-.73 1.42.82-1.25.72-1.41-.81zM93.92 149.61l1.25-.72 1.41.82-1.24.72-1.42-.82zM91.44 148.61l-1.24.72-1.42-.82 1.24-.72 1.42.82zM93.2 149.62l-1.24.72-1.42-.81 1.25-.72 1.41.81zM94.97 150.64l-1.24.72-1.42-.81 1.24-.73 1.42.82zM89.83 149.54l-1.25.72-1.41-.81 1.24-.73 1.42.82zM91.59 150.56l-1.24.72-1.42-.82 1.25-.72 1.41.82zM93.36 151.57l-1.24.72-1.42-.81 1.24-.72 1.42.81zM85.55 150.38l1.25-.72 1.42.81-1.25.72-1.42-.81zM87.32 151.4l1.24-.73 1.42.82-1.24.72-1.42-.81zM89.08 152.41l1.25-.72 1.42.82-1.25.72-1.42-.82zM83.94 151.31l1.25-.72 1.41.82-1.24.72-1.42-.82zM85.71 152.33l1.24-.72 1.42.81-1.24.72-1.42-.81zM87.47 153.35l1.25-.73 1.42.82-1.25.72-1.42-.81zM84.99 152.34l-1.24.72-1.42-.81 1.25-.72 1.41.81zM86.76 153.36l-1.24.72-1.42-.82 1.24-.72 1.42.82zM77.9 127.94l9.79-5.68a1.34 1.34 0 011.34 0l23.22 13.4a.59.59 0 010 1l-9.57 5.56a1.61 1.61 0 01-1.59 0L77.9 128.86a.53.53 0 010-.92z"/><path class="cls-17" d="M77.9 128.86l23.19 13.38a1.61 1.61 0 001.59 0l9.57-5.56a.59.59 0 00.29-.51v1.19a.57.57 0 01-.29.49l-9.57 5.56a1.56 1.56 0 01-1.59 0L77.9 130.05a.53.53 0 01-.26-.46v-1.19a.53.53 0 00.26.46z"/><path class="cls-15" d="M77.9 128.86l23.19 13.38a1.54 1.54 0 00.72.21v1.19a1.54 1.54 0 01-.72-.21L77.9 130.05a.53.53 0 01-.26-.46v-1.19a.53.53 0 00.26.46z"/><path class="cls-14" d="M103.29 128.84l-18.04-10.45v8.94l18.04 10.44v-8.93z"/><path class="cls-17" d="M87.76 116.95l-2.51 1.44 18.04 10.45 2.52-1.45-18.05-10.44zM105.81 127.39l-2.52 1.45v8.93l2.52-1.46v-8.92z"/><path fill="url(#linear-gradient)" d="M67 72.89l54.86 31.82v40.36L67 113.13V72.89z"/><path class="cls-17" d="M121.86 104.71l1.82-1.11v40.37l-1.82 1.1v-40.36z"/><path class="cls-16" d="M67 72.89l1.87-1.08 54.81 31.79-1.82 1.11L67 72.89z"/><path class="cls-15" d="M67 72.89v40.24l54.85 31.94v-40.36zm53.55 69.92L68.3 112.38V75.15l52.26 30.31z"/><path d="M46.69 122.73c-.56 5.76-4.82 10.06-9.5 9.6s-8-5.51-7.43-11.27 4.82-10.07 9.49-9.61 8.01 5.55 7.44 11.28z" fill="#fed4bd"/><path class="cls-20" d="M53.68 136.17s2 .49 2.74.56 3.38.63 4.47.29-1-1.05-1.47-1.43-.48-1.32.62-1.65 3.6-.17 4.92-.36-1.31-4.18-3.46-4.58a9.09 9.09 0 00-5.89.79c-1.83.91-2.83 2.43-3.68 2.73z"/><path class="cls-5" d="M53.92 130.72L40 134.21l-.7 8.83 16.42-5.62c.35-3.13-1.8-6.7-1.8-6.7zM19.62 134.46s-3.85 4.85 0 11.52c0 0 2.69 3.72 10.07.08z"/><path d="M31 128.8s6-.41 10.69 2.88A3.62 3.62 0 0043 133.3c.94.62 5.61 2.49 5.61 2.49s-2.06 27.38.3 40.7c0 0-10.13 7.92-26 0 0 0-2.31-33.61-3.33-42 .04-.03 2.68-3.29 11.42-5.69z" fill="#de495a"/><path class="cls-6" d="M28.38 173.99L0 157.58l9.55 27.67 28.39 16.37-9.56-27.63z"/><path class="cls-2" d="M3.13 155.76L0 157.58l28.38 16.41 3.17-1.84-28.42-16.39z"/><path class="cls-11" d="M31.55 172.15l-3.17 1.84 9.56 27.63 3.2-1.84-9.59-27.63z"/><path class="cls-20" d="M72.38 148.29s1.55-1.56 2.14-2 2.68-2.41 3.84-2.67-.82 1.76-1.06 2.39 1.19-.5 2.28-.91a5.33 5.33 0 013.72.13c2.69 1 2.56 6.33.36 5.69-3.61-1-5.23 1.82-7.39 2.43a23.29 23.29 0 01-3 .56z"/><path class="cls-5" d="M48.61 135.79l11.73 15.55 12.2-3.6s2.62 3.3 1.77 6.8L58 160.88l-13.2-14.56s-4.43-9.23 3.81-10.53z"/><path class="cls-10" d="M42.07 106.53s.9 2.16-3.42 2.75S29 112 27.59 116.57c-.9 2.92.15 6 1.61 8.59a17 17 0 001.71 2.5 9.37 9.37 0 006.37-1.1 11.06 11.06 0 003.43-4.18s2.57 1.07 3.37-1.07c.59-1.57 2.45-2 3.46-2.82 0 0 5.83-9.49-5.47-11.96z"/><path class="cls-6" d="M203.15 189.34l-18.81-10.91v7.04l18.81 10.88v-7.01z"/><path class="cls-2" d="M203.78 167.26l-19.44 11.17 18.81 10.91 19.46-11.18-18.83-10.9z"/><path class="cls-11" d="M222.61 178.16l-19.46 11.18v7.01l19.46-11.26v-6.93z"/><path class="cls-6" d="M203.15 177.84l-18.81-10.92v7.04l18.81 10.88v-7z"/><path class="cls-2" d="M203.78 155.75l-19.44 11.17 18.81 10.92 19.46-11.19-18.83-10.9z"/><path class="cls-11" d="M222.61 166.65l-19.46 11.19v7l19.46-11.26v-6.93z"/><path class="cls-6" d="M171.34 207.76l-18.8-10.92v7.04l18.81 10.88-.01-7z"/><path class="cls-2" d="M171.98 185.67l-19.44 11.17 18.8 10.92 19.47-11.19-18.83-10.9z"/><path class="cls-11" d="M190.81 196.57l-19.47 11.19.01 7 19.46-11.26v-6.93z"/><path class="cls-6" d="M171.34 196.25l-18.8-10.91v7.03l18.81 10.89-.01-7.01z"/><path class="cls-2" d="M171.98 174.17l-19.44 11.17 18.8 10.91 19.47-11.18-18.83-10.9z"/><path class="cls-11" d="M190.81 185.07l-19.47 11.18.01 7.01L190.81 192v-6.93z"/><path class="cls-6" d="M139.54 226.17l-18.8-10.91v7.03l18.8 10.89v-7.01z"/><path class="cls-2" d="M140.18 204.09l-19.44 11.17 18.8 10.91 19.47-11.18-18.83-10.9z"/><path class="cls-11" d="M159.01 214.99l-19.47 11.18v7.01l19.47-11.26v-6.93z"/><path class="cls-6" d="M139.54 214.66l-18.8-10.91v7.04l18.8 10.88v-7.01z"/><path class="cls-2" d="M140.18 192.58l-19.44 11.17 18.8 10.91 19.47-11.18-18.83-10.9z"/><path class="cls-11" d="M159.01 203.48l-19.47 11.18v7.01l19.47-11.26v-6.93z"/><path class="cls-9" d="M145.41 207.77l-1.18-.68a11.11 11.11 0 01-2.77.66v1h-2.86v-1a11.33 11.33 0 01-2.77-.66l-1.17.68-2-1.18 1.18-.68a3.7 3.7 0 01-1.16-1.6H131v-1.66h1.66a3.81 3.81 0 011.14-1.61l-1.18-.68 2-1.17 1.18.68a10.79 10.79 0 012.77-.66v-1h2.87v1a10.89 10.89 0 012.77.66l1.17-.68 2 1.17-1.18.69a3.64 3.64 0 011.16 1.6H149v1.66h-1.66a3.73 3.73 0 01-1.14 1.6l1.18.69zm-8.06-2.77a5.89 5.89 0 005.33 0c1.46-.85 1.45-2.23 0-3.08a5.87 5.87 0 00-5.32 0c-1.47.85-1.46 2.23 0 3.08"/><path fill="#ef4136" d="M173.41 180.24l1.83 3.9 1.83 3.91-6.75-1.05-6.75-1.04 4.92-2.86 4.92-2.86z"/><path class="cls-23" d="M196.42 165.81c-1-.58-.56-1.44 1.38-2.56a8.36 8.36 0 012.56-1 2.62 2.62 0 011.85.16 1.35 1.35 0 01.49.45 2.45 2.45 0 01.23.5l1.78-.43a2.17 2.17 0 00-.47-.78 3.3 3.3 0 00-.75-.58 5.33 5.33 0 00-3.32-.6 10.09 10.09 0 00-4 1.39 5 5 0 00-2.39 2.27q-.36 1.09 1.05 1.92a5.22 5.22 0 002 .67l1.38-.8a5.28 5.28 0 01-1.79-.61zM204.87 168a1.78 1.78 0 000-1.32 1.73 1.73 0 01-.14-.91.93.93 0 01.49-.57 2.09 2.09 0 01.88-.27 1.38 1.38 0 01.83.19 1.5 1.5 0 01.53.45 3.6 3.6 0 01.29.5l1.76-.43a3 3 0 00-1.32-1.38 4.27 4.27 0 00-2.24-.57 4.66 4.66 0 00-2.3.64 3.23 3.23 0 00-.84.66 1.79 1.79 0 00-.33.7 2.09 2.09 0 00.11.88 1.85 1.85 0 01.12 1 .88.88 0 01-.49.6 1.75 1.75 0 01-1.82 0 2.49 2.49 0 01-1.11-1.35l-1.54.89a3.49 3.49 0 001.44 1.33 4.53 4.53 0 002.34.63 4.92 4.92 0 002.38-.7 2.44 2.44 0 00.96-.97zM213 167a4.27 4.27 0 00-2.24-.57 4.72 4.72 0 00-2.3.64 3.16 3.16 0 00-.83.66 1.47 1.47 0 00-.33.69 1.85 1.85 0 00.11.89 2 2 0 01.12 1 .91.91 0 01-.49.6 1.91 1.91 0 01-.9.26 1.73 1.73 0 01-.92-.25 2.51 2.51 0 01-1.12-1.35l-1.53.89a3.39 3.39 0 001.43 1.33 4.42 4.42 0 002.34.62 4.8 4.8 0 002.39-.69 2.36 2.36 0 001-.95 1.66 1.66 0 000-1.31 1.71 1.71 0 01-.13-.91.9.9 0 01.49-.57 1.88 1.88 0 01.88-.27 1.4 1.4 0 01.83.19 1.56 1.56 0 01.52.45 3.14 3.14 0 01.29.49l1.76-.42A3 3 0 00213 167z"/><path d="M202.73 104.23l-18.27-10.54a1.72 1.72 0 00-1.82.07l-4 2.32 1.86 2.53.69.79v18.1a3 3 0 001.51 2.61l13.67 7.9.14.76 2.79 3.91 4.29-2.52a1.39 1.39 0 00.66-1.18v-22a3.12 3.12 0 00-1.52-2.75z" fill="#79ff68"/><path class="cls-25" d="M198.46 106.74L180 96.08a1.35 1.35 0 00-2 1.17v22.12a3 3 0 001.51 2.61l18.48 10.68a1.38 1.38 0 002.08-1.2v-22a3.12 3.12 0 00-1.61-2.72z"/><path class="cls-6" d="M199.32 132.67z"/><path d="M200 131.46v-22a3 3 0 00-.22-1.07l4.29-2.46a2.89 2.89 0 01.2 1v22a1.39 1.39 0 01-.66 1.18l-4.25 2.5a1.38 1.38 0 00.64-1.15z" fill="#3cc743"/><path d="M223.63 60.23l-18.27-10.54a1.73 1.73 0 00-1.83.08l-4 2.31 1.87 2.53.69.8V73.5a3 3 0 001.51 2.61L217.26 84l.14.76 2.79 3.9 4.29-2.52a1.38 1.38 0 00.65-1.18v-22a3.13 3.13 0 00-1.5-2.73z" fill="#9263c1"/><path class="cls-28" d="M219.36 62.74l-18.48-10.66a1.35 1.35 0 00-2 1.17v22.12a3 3 0 001.48 2.63l18.47 10.69a1.39 1.39 0 002.08-1.21v-22a3.13 3.13 0 00-1.55-2.74z"/><path class="cls-6" d="M220.22 88.67z"/><path d="M220.91 87.46v-22a2.9 2.9 0 00-.21-1.06l4.3-2.49a3.13 3.13 0 01.19 1V85a1.38 1.38 0 01-.65 1.18l-4.25 2.5a1.36 1.36 0 00.62-1.22z" fill="#7231a3"/><path d="M162.56 60.55L144.29 50a1.71 1.71 0 00-1.83.08l-4 2.31 1.87 2.53.69.8v18.1a3 3 0 001.51 2.61l13.67 7.9.14.76 2.78 3.91 4.29-2.52a1.38 1.38 0 00.65-1.18v-22a3.13 3.13 0 00-1.5-2.75z" fill="#ffa8e1"/><path d="M158.29 63.06L139.81 52.4a1.35 1.35 0 00-2 1.17v22.12a3 3 0 001.51 2.61L157.76 89a1.38 1.38 0 002.08-1.2v-22a3.12 3.12 0 00-1.55-2.74z" fill="#ff7ad2"/><path class="cls-6" d="M159.14 89z"/><path d="M159.84 87.78v-22a2.9 2.9 0 00-.21-1.06l4.29-2.47a3.13 3.13 0 01.19 1v22a1.38 1.38 0 01-.65 1.18L159.15 89a1.35 1.35 0 00.69-1.22z" fill="#de64c6"/><path d="M122.56 17.89L104.3 7.35a1.73 1.73 0 00-1.83.08l-4 2.31 1.86 2.53.7.8v18.09a3 3 0 001.51 2.61l13.66 7.91.14.76 2.79 3.9 4.29-2.52a1.36 1.36 0 00.66-1.17v-22a3.14 3.14 0 00-1.52-2.76z" fill="#fcec32"/><path class="cls-34" d="M118.29 20.4L99.81 9.74a1.35 1.35 0 00-2 1.17V33a3 3 0 001.51 2.61L117.8 46.3a1.39 1.39 0 002.08-1.2v-22a3.12 3.12 0 00-1.59-2.7z"/><path class="cls-6" d="M119.15 46.33z"/><path d="M119.85 45.13v-22a3.12 3.12 0 00-.21-1.06l4.28-2.47a2.89 2.89 0 01.2 1v22a1.36 1.36 0 01-.66 1.17l-4.25 2.5a1.36 1.36 0 00.64-1.14z" fill="#eaa10c"/><path class="cls-2" d="M154.64 67.4a11.72 11.72 0 00-4.06-4.29 4.12 4.12 0 00-4.08-.41c-2 1.15-2.23 4.58-.68 8l-5 2.86 1.46 2.53 5-2.86a11 11 0 003.27 3.06 4.1 4.1 0 004.06.41c2.26-1.23 2.27-5.42.03-9.3zm-1.49 6.82a2.6 2.6 0 01-2.6-.27 7.42 7.42 0 01-2.6-2.74c-1.43-2.48-1.43-5.16 0-6a2.62 2.62 0 012.6.26 7.5 7.5 0 012.6 2.74c1.45 2.51 1.44 5.19 0 6.01z"/><path class="cls-28" d="M103.61 22.3a4.28 4.28 0 01.83.66c.28.27.56.57.84.88l.52-1.18a8.88 8.88 0 00-2.19-1.87 3.22 3.22 0 00-1.87-.55 1.53 1.53 0 00-1.22.85 4.26 4.26 0 00-.44 2.1 8 8 0 00.86 3.78 6.33 6.33 0 002.5 2.58 5.3 5.3 0 002.06.75v-1.54a5.8 5.8 0 01-1.91-.64c-1.25-.73-1.88-2.05-1.87-4a2.64 2.64 0 01.49-1.87c.33-.25.79-.25 1.4.05zM109.72 25.86l-1.12-.65-.01 2.3-1.98-1.15v1.29l1.98 1.15-.01 2.27 1.12.64.01-2.26 1.98 1.14.01-1.29-1.99-1.15.01-2.29zM115.7 31.61l.01-2.29-1.12-.65-.01 2.29-1.98-1.14v1.29l1.98 1.15-.01 2.26 1.12.65.01-2.27 1.98 1.15v-1.29l-1.98-1.15z"/><path class="cls-2" d="M204.9 61.34a1.79 1.79 0 00-.3 1.21v2.71q0 .75-.48.81a2.58 2.58 0 01-1.37-.46v1.84a4.68 4.68 0 011.37 1.13 2.26 2.26 0 01.48 1.43v2.62a3.65 3.65 0 00.3 1.56 3.84 3.84 0 00.94 1.26 9.15 9.15 0 001.79 1.26V75a3 3 0 01-1-.89 2 2 0 01-.26-1v-2.6a3.43 3.43 0 00-1.65-2.73v-.1c1.09.44 1.64.14 1.66-.92v-2.5c0-.41.09-.65.27-.74s.51 0 1 .27V62a6.79 6.79 0 00-1.78-.8.94.94 0 00-.97.14zM215.23 72.49a2.16 2.16 0 01-.47-1.36v-2.71a3.53 3.53 0 00-.68-2.19 7.58 7.58 0 00-2.35-1.89v1.74a3 3 0 011 .89 2 2 0 01.26 1v2.5a3.6 3.6 0 001.67 2.84v.1a1.61 1.61 0 00-1.24-.12c-.29.14-.44.46-.44 1v2.57c0 .41-.08.66-.26.75s-.51 0-1-.27v1.74a4.39 4.39 0 002.37.84c.45-.09.68-.56.68-1.42v-2.61c0-.55.16-.84.47-.89a2.45 2.45 0 011.38.45v-1.84a4.68 4.68 0 01-1.39-1.12z"/><path class="cls-16" d="M180.3 110.33l5.72 6.22.01-1.59-3.95-4.15 3.96.18v-1.59l-5.74-.02v.95zM186.61 118.24l1.6.92 3.18-7.89-1.61-.92-3.17 7.89zM191.94 112.81v1.59l3.95 4.38-3.96-.41-.01 1.59 5.75.4v-.95l-5.73-6.6z"/><path class="cls-34" d="M73.83 81.28v1.07l4.5 2.59v-1.07l-4.5-2.59z"/><path class="cls-36" d="M73.83 83.23v1.07l4.5 2.6v-1.07l-4.5-2.6zM73.83 85.19v1.07l4.5 2.59v-1.07l-4.5-2.59zM107.77 107.79v-1.07L80.01 90.71v1.07l27.76 16.01zM73.83 87.14v1.07l4.5 2.6v-1.07l-4.5-2.6zM73.83 89.1v1.07l4.5 2.59v-1.07l-4.5-2.59z"/><path class="cls-25" d="M107.77 109.74v-1.07l-27.76-16v1.06l27.76 16.01z"/><path class="cls-36" d="M73.83 94.96v1.07l4.5 2.6v-1.07l-4.5-2.6z"/><path class="cls-34" d="M73.83 96.92v1.07l4.5 2.59v-1.07l-4.5-2.59z"/><path class="cls-36" d="M73.83 104.74v1.07l4.5 2.6v-1.08l-4.5-2.59zM73.83 106.7v1.07l4.5 2.59v-1.07l-4.5-2.59z"/><path class="cls-25" d="M97.52 120.36l-17.51-10.1v1.07l17.51 10.1v-1.07z"/><path class="cls-36" d="M98.44 120.89v1.08l9.33 5.37v-1.07l-9.33-5.38zM88.81 113.38l-8.8-5.07v1.07l8.8 5.07v-1.07zM89.73 113.92v1.06l18.04 10.41v-1.07l-18.04-10.4zM105.39 117.08v1.07l2.38 1.37v-1.07l-2.38-1.37z"/><path class="cls-5" d="M92.48 107.68l-12.47-7.19v1.07l12.47 7.19v-1.07z"/><path class="cls-36" d="M87.37 89.09l-7.36-4.25v1.07l7.36 4.25v-1.07zM99.44 96.05L88.3 89.62v1.07l11.14 6.43v-1.07zM92.94 94.26l-7.84-4.53v1.07l7.84 4.53v-1.07z"/><path class="cls-5" d="M101.18 99l-7.31-4.21v1.07l7.31 4.22V99z"/><path class="cls-36" d="M102.1 99.54v1.07l5.67 3.27v-1.07l-5.67-3.27z"/><path class="cls-5" d="M81.46 89.59v1.07l5.91 3.41V93l-5.91-3.41z"/><path class="cls-36" d="M105.45 103.43l-17.15-9.9v1.07l17.15 9.9v-1.07zM95.63 103.63l-11.21-6.47v1.07l11.21 6.47v-1.07zM105.45 109.29l-8.9-5.13v1.07l8.9 5.13v-1.07zM104.47 114.59l-11.06-6.38v1.07l11.06 6.38v-1.07z"/><path class="cls-25" d="M98.44 113.07v1.07l6.03 3.48v-1.07l-6.03-3.48z"/><path class="cls-36" d="M82.18 103.69l-2.17-1.25v1.07l2.17 1.25v-1.07zM86.25 106.04v1.07l11.27 6.5v-1.07l-11.27-6.5zM85.33 105.51l-2.22-1.28v1.07l2.22 1.28v-1.07zM95.44 113.29l-12.33-7.11v1.07l12.33 7.11v-1.07zM109.72 101.99v.29l1.24.72v-.3l-1.24-.71zM109.72 102.53v.29l1.24.72v-.3l-1.24-.71zM109.72 103.07v.29l1.24.72v-.3l-1.24-.71zM119.07 109.29V109l-7.65-4.41v.29l7.65 4.41zM109.72 103.61v.29l1.24.71v-.29l-1.24-.71zM109.72 104.14v.3l1.24.71v-.29l-1.24-.72zM119.07 109.83v-.29l-7.65-4.41v.29l7.65 4.41zM109.72 105.76v.3l1.24.71v-.29l-1.24-.72zM109.72 106.3v.29l1.24.72v-.3l-1.24-.71zM109.72 108.45v.3l1.24.72v-.3l-1.24-.72zM109.72 108.99v.3l1.24.71v-.29l-1.24-.72zM116.25 112.76l-4.83-2.78v.29l4.83 2.78v-.29zM116.5 112.91v.29l2.57 1.48v-.29l-2.57-1.48zM113.85 110.84l-2.43-1.4v.29l2.43 1.4v-.29zM114.1 110.98v.3l4.97 2.86v-.29l-4.97-2.87zM118.42 111.86v.29l.65.38v-.3l-.65-.37zM114.86 109.26l-3.44-1.98v.3l3.44 1.98v-.3zM113.45 104.14l-2.03-1.17v.3l2.03 1.17v-.3zM116.78 106.06l-3.08-1.77v.29l3.08 1.77v-.29zM114.98 105.57l-2.16-1.25v.29l2.16 1.25v-.29zM117.25 106.87l-2.01-1.16v.3l2.01 1.16v-.3zM117.51 107.02v.3l1.56.9v-.3l-1.56-.9zM111.82 104.28v.3l1.63.93v-.29l-1.63-.94zM118.43 108.09l-4.73-2.72v.29l4.73 2.73v-.3zM115.72 108.15l-3.08-1.78v.29l3.08 1.78v-.29zM118.43 109.71l-2.45-1.41v.29l2.45 1.41v-.29zM118.16 111.17l-3.05-1.76v.3l3.05 1.76v-.3zM116.5 110.75v.3l1.66.95v-.29l-1.66-.96zM112.02 108.17l-.6-.35v.3l.6.34v-.29zM113.14 108.81v.3l3.11 1.79v-.3l-3.11-1.79zM112.89 108.67l-.62-.36v.3l.62.35v-.29zM115.67 110.81l-3.4-1.96v.3l3.4 1.96v-.3zM109.72 111.11v.29l1.24.72v-.3l-1.24-.71zM109.72 111.64v.3l1.24.72v-.3l-1.24-.72zM109.72 112.18v.3l1.24.71v-.29l-1.24-.72zM119.07 118.41v-.29l-7.65-4.41v.29l7.65 4.41zM109.72 112.72v.3l1.24.71v-.29l-1.24-.72zM109.72 113.26v.3l1.24.71v-.29l-1.24-.72zM119.07 118.95v-.29l-7.65-4.42v.3l7.65 4.41zM109.72 114.88v.29l1.24.72v-.3l-1.24-.71zM109.72 115.42v.29l1.24.72v-.3l-1.24-.71zM109.72 117.57v.3l1.24.71v-.29l-1.24-.72zM109.72 118.11v.3l1.24.71v-.29l-1.24-.72zM116.25 121.88l-4.83-2.79v.3l4.83 2.78v-.29zM116.5 122.02v.3l2.57 1.48v-.3l-2.57-1.48zM113.85 119.95l-2.43-1.39v.29l2.43 1.4v-.3zM114.1 120.1v.29l4.97 2.87v-.29l-4.97-2.87zM118.42 120.97v.3l.65.37v-.29l-.65-.38zM114.86 118.38l-3.44-1.98v.29l3.44 1.99v-.3zM113.45 113.26l-2.03-1.17v.29l2.03 1.17v-.29zM116.78 115.18l-3.08-1.77v.29l3.08 1.77v-.29zM114.98 114.68l-2.16-1.24v.29l2.16 1.25v-.3zM117.25 115.99l-2.01-1.16v.3l2.01 1.16v-.3zM117.51 116.14v.29l1.56.9v-.29l-1.56-.9zM111.82 113.4v.29l1.63.94v-.29l-1.63-.94zM118.43 117.21l-4.73-2.73v.3l4.73 2.72v-.29zM115.72 117.27l-3.08-1.79v.3l3.08 1.78v-.29zM118.43 118.83l-2.45-1.42v.3l2.45 1.41v-.29zM118.16 120.29l-3.05-1.76v.29l3.05 1.76v-.29zM116.5 119.87v.29l1.66.96v-.29l-1.66-.96zM112.02 117.28l-.6-.34v.29l.6.35v-.3zM113.14 117.93v.29l3.11 1.8v-.3l-3.11-1.79zM112.89 117.78l-.62-.35v.29l.62.36v-.3zM115.67 119.93l-3.4-1.96v.29l3.4 1.96v-.29zM109.72 120.22v.3l1.24.71v-.29l-1.24-.72zM109.72 120.76v.3l1.24.71v-.29l-1.24-.72zM109.72 121.3v.3l1.24.71v-.29l-1.24-.72zM119.07 127.53v-.3l-7.65-4.41v.3l7.65 4.41zM109.72 121.84v.3l1.24.71v-.29l-1.24-.72zM109.72 122.38v.29l1.24.72v-.3l-1.24-.71zM119.07 128.07v-.3l-7.65-4.41v.3l7.65 4.41zM109.72 124v.29l1.24.71v-.29l-1.24-.71zM109.72 124.53v.3l1.24.71v-.29l-1.24-.72zM109.72 126.69v.29l1.24.72v-.3l-1.24-.71zM109.72 127.23v.29l1.24.72v-.3l-1.24-.71zM116.25 130.99l-4.83-2.78v.3l4.83 2.78v-.3zM116.5 131.14v.3l2.57 1.48v-.3l-2.57-1.48zM113.85 129.07l-2.43-1.4v.3l2.43 1.4v-.3zM114.1 129.22v.29l4.97 2.87v-.3l-4.97-2.86zM118.42 130.09v.29l.65.38v-.29l-.65-.38zM114.86 127.5l-3.44-1.98v.29l3.44 1.98v-.29zM113.45 122.38l-2.03-1.17v.29l2.03 1.17v-.29zM116.78 124.29l-3.08-1.77v.3l3.08 1.77v-.3zM114.98 123.8l-2.16-1.25v.3l2.16 1.24v-.29zM117.25 125.11l-2.01-1.16v.29l2.01 1.16v-.29zM117.51 125.25v.3l1.56.9v-.29l-1.56-.91zM111.82 122.51v.3l1.63.94v-.3l-1.63-.94zM118.43 126.33l-4.73-2.73v.29l4.73 2.73v-.29zM115.72 126.38l-3.08-1.78v.29l3.08 1.79v-.3zM118.43 127.94l-2.45-1.41v.29l2.45 1.42v-.3zM118.16 129.4l-3.05-1.76v.3l3.05 1.76v-.3zM116.5 128.99v.29l1.66.96v-.3l-1.66-.95zM112.02 126.4l-.6-.34v.29l.6.34v-.29zM113.14 127.05v.29l3.11 1.79v-.29l-3.11-1.79zM112.89 126.9l-.62-.35v.29l.62.35v-.29zM115.67 129.05l-3.4-1.96v.29l3.4 1.96v-.29zM109.72 129.34v.3l1.24.71v-.29l-1.24-.72zM109.72 129.88v.29l1.24.72v-.3l-1.24-.71zM109.72 130.42v.29l1.24.72v-.3l-1.24-.71zM119.07 136.65v-.3l-7.65-4.41v.3l7.65 4.41zM109.72 130.96v.29l1.24.72v-.3l-1.24-.71zM109.72 131.5v.29l1.24.71v-.29l-1.24-.71zM119.07 137.18v-.29l-7.65-4.41v.29l7.65 4.41zM109.72 133.11v.3l1.24.71v-.29l-1.24-.72zM109.72 133.65v.3l1.24.71v-.29l-1.24-.72zM118.42 139.21v.29l.65.38v-.3l-.65-.37zM114.86 136.62l-3.44-1.99v.3l3.44 1.98v-.29zM113.45 131.49l-2.03-1.17v.3l2.03 1.17v-.3zM116.78 133.41l-3.08-1.77v.3l3.08 1.77v-.3zM114.98 132.92l-2.16-1.25v.3l2.16 1.24v-.29zM117.25 134.23l-2.01-1.17v.3l2.01 1.16v-.29zM117.51 134.37v.3l1.56.9v-.3l-1.56-.9zM111.82 131.63v.3l1.63.94v-.3l-1.63-.94zM118.43 135.44l-4.73-2.72v.29l4.73 2.73v-.3zM115.72 135.5l-3.08-1.78v.29l3.08 1.78v-.29zM118.43 137.06l-2.45-1.41v.29l2.45 1.42v-.3zM118.16 138.52l-3.05-1.76v.3l3.05 1.76v-.3zM116.5 138.1v.3l1.66.95v-.29l-1.66-.96zM112.02 135.52l-.6-.35v.3l.6.34v-.29zM113.14 136.16v.3l3.11 1.79v-.29l-3.11-1.8zM112.89 136.02l-.62-.36v.3l.62.35v-.29zM115.67 138.16l-3.4-1.96v.3l3.4 1.96v-.3z"/><path class="cls-25" d="M71 79.61l-1.48-.85a.11.11 0 00-.17.09v1.78a.26.26 0 00.13.21l1.48.85a.11.11 0 00.16-.09v-1.77a.25.25 0 00-.12-.22zM71 82.27l-1.48-.86a.12.12 0 00-.17.1v1.77a.23.23 0 00.13.21l1.48.86a.11.11 0 00.16-.1v-1.77a.22.22 0 00-.12-.21zM71 84.92l-1.48-.86a.12.12 0 00-.17.1v1.77a.23.23 0 00.13.21l1.48.86a.11.11 0 00.16-.1v-1.76a.24.24 0 00-.12-.22zM71 87.57l-1.48-.85a.11.11 0 00-.17.09v1.78a.23.23 0 00.13.2l1.48.86a.11.11 0 00.16-.09v-1.77a.25.25 0 00-.12-.22zM71 90.23l-1.48-.86a.12.12 0 00-.17.1v1.77a.26.26 0 00.13.21l1.48.85a.1.1 0 00.16-.09v-1.77a.22.22 0 00-.12-.21zM71 92.88L69.47 92a.12.12 0 00-.17.1v1.77a.23.23 0 00.13.21l1.48.86a.11.11 0 00.16-.1V93.1a.24.24 0 00-.07-.22zM71 95.53l-1.48-.85a.11.11 0 00-.17.09v1.77a.23.23 0 00.13.21l1.48.86a.11.11 0 00.16-.1v-1.76a.25.25 0 00-.12-.22zM71 98.19l-1.48-.86a.11.11 0 00-.17.09v1.78a.26.26 0 00.13.21l1.48.85a.1.1 0 00.16-.09V98.4a.22.22 0 00-.12-.21zM71 100.84l-1.53-.84a.12.12 0 00-.17.1v1.77a.23.23 0 00.13.21l1.48.86a.11.11 0 00.16-.1v-1.77a.24.24 0 00-.07-.23zM71 103.49l-1.48-.85a.11.11 0 00-.17.09v1.77a.23.23 0 00.13.21l1.48.86a.11.11 0 00.16-.1v-1.76a.25.25 0 00-.12-.22zM71 106.14l-1.48-.85a.11.11 0 00-.17.09v1.78a.26.26 0 00.13.21l1.48.85a.1.1 0 00.16-.09v-1.77a.25.25 0 00-.12-.22zM71 108.8l-1.48-.86a.12.12 0 00-.17.1v1.77a.23.23 0 00.13.21l1.48.86a.11.11 0 00.16-.1V109a.22.22 0 00-.12-.2z"/><g class="cls-1"><path class="cls-2" d="M140.54 89.02v1.07l4.5 2.59v-1.07l-4.5-2.59zM140.54 90.97v1.07l4.5 2.6v-1.08l-4.5-2.59zM140.54 92.93V94l4.5 2.59v-1.07l-4.5-2.59zM174.48 115.53v-1.07l-27.75-16.01v1.07l27.75 16.01zM140.54 94.88v1.07l4.5 2.6v-1.07l-4.5-2.6zM140.54 96.84v1.07l4.5 2.59v-1.07l-4.5-2.59zM174.48 117.48v-1.07l-27.75-16v1.06l27.75 16.01zM140.54 102.7v1.08l4.5 2.59v-1.07l-4.5-2.6zM140.54 104.66v1.07l4.5 2.59v-1.07l-4.5-2.59zM140.54 112.48v1.07l4.5 2.6v-1.07l-4.5-2.6zM140.54 114.44v1.07l4.5 2.59v-1.07l-4.5-2.59zM164.24 128.1L146.73 118v1.08l17.51 10.09v-1.07zM165.16 128.63v1.08l9.32 5.37v-1.07l-9.32-5.38zM155.53 121.12l-8.8-5.07v1.07l8.8 5.07v-1.07zM156.45 121.66v1.06l18.03 10.41v-1.07l-18.03-10.4zM172.11 124.82v1.07l2.37 1.37v-1.07l-2.37-1.37zM159.2 115.42l-12.47-7.19v1.07l12.47 7.19v-1.07zM154.09 96.83l-7.36-4.25v1.07l7.36 4.25v-1.07zM166.16 103.79l-11.15-6.43v1.07l11.15 6.43v-1.07zM159.66 102l-7.84-4.53v1.07l7.84 4.53V102zM167.89 106.75l-7.31-4.22v1.07l7.31 4.21v-1.06zM168.81 107.28v1.07l5.67 3.27v-1.07l-5.67-3.27zM148.18 97.33v1.07l5.91 3.41v-1.07l-5.91-3.41zM172.17 111.17l-17.16-9.9v1.07l17.16 9.9v-1.07zM162.35 111.37l-11.22-6.47v1.07l11.22 6.47v-1.07zM172.17 117.03l-8.9-5.13v1.07l8.9 5.14v-1.08zM171.19 122.33l-11.07-6.38v1.07l11.07 6.38v-1.07zM165.16 120.81v1.07l6.03 3.48v-1.07l-6.03-3.48zM148.9 111.43l-2.17-1.25v1.07l2.17 1.25v-1.07zM152.96 113.78v1.07l11.28 6.5v-1.07l-11.28-6.5zM152.04 113.25l-2.22-1.28v1.07l2.22 1.28v-1.07zM162.15 121.03l-12.33-7.11v1.07l12.33 7.11v-1.07z"/></g><g class="cls-1"><path class="cls-2" d="M181.88 22v1.07l4.5 2.59v-1.07l-4.5-2.59zM181.88 23.95v1.07l4.5 2.6v-1.07l-4.5-2.6zM181.88 25.91v1.07l4.5 2.59V28.5l-4.5-2.59zM215.82 48.51v-1.07l-27.75-16.01v1.07l27.75 16.01zM181.88 27.87v1.07l4.5 2.59v-1.07l-4.5-2.59zM181.88 29.82v1.07l4.5 2.6v-1.08l-4.5-2.59zM215.82 50.47V49.4l-27.75-16.01v1.07l27.75 16.01zM181.88 35.69v1.07l4.5 2.59v-1.07l-4.5-2.59zM181.88 37.64v1.07l4.5 2.6v-1.07l-4.5-2.6zM181.88 45.47v1.07l4.5 2.59v-1.07l-4.5-2.59zM181.88 47.42v1.07l4.5 2.6v-1.08l-4.5-2.59zM205.57 61.09l-17.5-10.1v1.07l17.5 10.1v-1.07zM206.5 61.62v1.07l9.32 5.38V67l-9.32-5.38zM196.86 54.11l-8.79-5.08v1.07l8.79 5.08v-1.07zM197.78 54.64v1.07l18.04 10.4v-1.07l-18.04-10.4zM213.45 57.8v1.08l2.37 1.36v-1.07l-2.37-1.37zM200.54 48.4l-12.47-7.19v1.07l12.47 7.19V48.4zM195.43 29.81l-7.36-4.24v1.07l7.36 4.24v-1.07zM207.49 36.77l-11.14-6.43v1.07l11.14 6.43v-1.07zM201 34.98l-7.85-4.52v1.07l7.85 4.52v-1.07zM209.23 39.73l-7.31-4.22v1.07l7.31 4.22v-1.07zM210.15 40.26v1.07l5.67 3.27v-1.07l-5.67-3.27zM189.51 30.31v1.07l5.92 3.41v-1.07l-5.92-3.41zM213.51 44.15l-17.16-9.89v1.07l17.16 9.89v-1.07zM203.68 44.35l-11.21-6.47v1.07l11.21 6.47v-1.07zM213.51 50.02l-8.9-5.14v1.07l8.9 5.14v-1.07zM212.52 55.32l-11.06-6.38v1.07l11.06 6.38v-1.07zM206.5 53.8v1.07l6.02 3.47v-1.07l-6.02-3.47zM190.24 44.42l-2.17-1.25v1.07l2.17 1.25v-1.07zM194.3 46.76v1.07l11.27 6.51v-1.08l-11.27-6.5zM193.38 46.23l-2.22-1.28v1.07l2.22 1.28v-1.07zM203.49 54.02l-12.33-7.11v1.07l12.33 7.11v-1.07z"/></g><path class="cls-14" d="M100.59 159.41a6 6 0 00-5.51.84c-3 2-5 4.74-3.78 5.76s3.57 2.1 5.1 1.55 9.09-4.99 4.19-8.15z"/><path class="cls-5" d="M163.5 147.74l-23.56 13.35-15.02-8.69 23.56-13.34 15.02 8.68z"/><path fill="#f0cec9" d="M144.55 160.77v.52l23.56-13.49v-.38l-23.56 13.35z"/><path fill="#fffbf0" d="M168.11 147.42l-23.56 13.35-15.01-8.69 23.55-13.34 15.02 8.68z"/><path fill="#f5ddd8" d="M144.55 160.77v.52l-15.01-8.69v-.52l15.01 8.69z"/><path class="cls-40" d="M152.93 140.16l9.07 5.23-.39.23-9.08-5.23.4-.23zM151.99 140.7l9.07 5.23-.4.22-9.07-5.23.4-.22zM149.8 141.94l12.49 7.21-.4.22-12.49-7.21.4-.22zM148.93 142.43l12.49 7.21-.39.22-12.5-7.21.4-.22zM148.07 142.92l12.49 7.21-.4.22-12.49-7.21.4-.22zM147.2 143.41l12.49 7.21-.39.22-12.49-7.21.39-.22zM146.34 143.9l12.49 7.21-.4.23-12.49-7.21.4-.23zM145.47 144.39l12.5 7.21-.4.23-12.49-7.21.39-.23zM144.61 144.88l12.49 7.21-.4.23-12.49-7.21.4-.23zM143.74 145.37l12.5 7.21-.4.23-12.49-7.21.39-.23zM142.88 145.86l12.49 7.21-.4.23-12.49-7.21.4-.23zM142.01 146.35l12.5 7.21-.4.23-12.49-7.21.39-.23zM141.15 146.84l12.49 7.22-.4.22-12.49-7.21.4-.23zM140.29 147.34l12.49 7.2-.4.23-12.49-7.21.4-.22zM139.42 147.83l12.49 7.21-.4.22-12.49-7.21.4-.22zM138.56 148.32l12.49 7.21-.4.22-12.49-7.21.4-.22zM137.69 148.81l12.49 7.21-.39.22-12.5-7.21.4-.22z"/><path class="cls-11" d="M127.51 155.51h-2.2v2.38h2.2a1.49 1.49 0 011.49 1.48v3.86a1.49 1.49 0 01-1.49 1.49h-3.23v2.38h3.23a3.88 3.88 0 003.87-3.87v-3.86a3.87 3.87 0 00-3.87-3.86z"/><path class="cls-6" d="M126.69 154.2v13.38c0 2.07-3.1 3.75-6.91 3.75s-6.91-1.68-6.91-3.75V154.2z"/><path class="cls-2" d="M112.87 154.2c0 2.07 3.09 3.75 6.91 3.75s6.91-1.68 6.91-3.75-3.1-3.76-6.91-3.76-6.91 1.68-6.91 3.76z"/><path class="cls-11" d="M114.25 154.15c0 1.62 2.47 2.94 5.53 2.94s5.53-1.32 5.53-2.94-2.48-2.94-5.53-2.94-5.53 1.32-5.53 2.94z"/><path class="cls-10" d="M119.78 153.13c-2.42 0-4.47.83-5.22 2 .75 1.15 2.8 2 5.22 2s4.47-.83 5.22-2c-.75-1.13-2.8-2-5.22-2z"/><path class="cls-11" d="M122.39 157.67v13.39a7.51 7.51 0 003.25-1.51v-13.38a7.39 7.39 0 01-3.25 1.5z"/></g></g></svg>