<svg xmlns="http://www.w3.org/2000/svg" viewBox="0 0 512 512">
	<path d="M438.291 73.725l-.003-.003C338.165-26.403 174.817-23.374 75.721 75.718l-.003.003-.003.003c-99.113 99.113-102.098 262.463-1.997 362.566 100.845 100.844 264.241 96.324 362.567-1.997l.003-.003.003-.003c99.199-99.199 101.996-262.563 2-362.562zm34.998 116.167c-37.393 6.111-75.727-2.223-107.075-22.886l61.103-61.103c21.824 24.957 37.151 53.683 45.972 83.989zM299.182 33.346c38.671 6.976 75.745 24.082 106.925 51.346l-63.264 63.263c-30.274-30.273-46.026-72.218-43.661-114.609zm-40.338-3.619c3.499 0 6.997.083 10.491.244-3.402 52.109 15.602 102.496 52.298 139.194l-65.63 65.63L107.887 86.68c43.169-37.938 97.16-56.953 150.957-56.953zM86.677 107.889l148.116 148.116-65.63 65.629c-36.771-36.772-87.192-55.693-139.188-52.298-2.632-57.21 16.3-115.473 56.702-161.447zM33.34 299.185c42.391-2.367 84.34 13.386 114.615 43.66L84.69 406.109c-27.266-31.181-44.376-68.252-51.35-106.924zM189.889 473.29c-30.306-8.821-59.032-24.148-83.989-45.972l61.103-61.103c20.663 31.348 28.997 69.681 22.886 107.075zm29.329 6.434c7.996-46.25-2.065-94.98-30.618-135.105l67.404-67.404L404.12 425.331c-52.284 45.946-120.458 64.117-184.902 54.393zm206.112-75.603L277.214 256.006l67.404-67.404c39.28 27.953 87.773 38.796 135.104 30.612 9.726 64.446-8.445 132.623-54.392 184.907z"/>
</svg>