<?xml version="1.0" encoding="iso-8859-1"?>
<!-- Generator: Adobe Illustrator 19.0.0, SVG Export Plug-In . SVG Version: 6.00 Build 0)  -->
<svg xmlns="http://www.w3.org/2000/svg" xmlns:xlink="http://www.w3.org/1999/xlink" x="0px" y="0px"
	 viewBox="0 0 512 512" style="enable-background:new 0 0 512 512;" xml:space="preserve">
<g>
	<g>
		<path d="M438.291,73.725c-0.001-0.001-0.002-0.002-0.003-0.003C338.165-26.403,174.817-23.374,75.721,75.718
			c-0.001,0.001-0.002,0.002-0.003,0.003c-0.001,0.001-0.002,0.002-0.003,0.003c-99.113,99.113-102.098,262.463-1.997,362.566
			c100.845,100.844,264.241,96.324,362.567-1.997c0.001-0.001,0.002-0.002,0.003-0.003c0.001-0.001,0.002-0.002,0.003-0.003
			C535.49,337.088,538.287,173.724,438.291,73.725z M473.289,189.892c-37.393,6.111-75.727-2.223-107.075-22.886l61.103-61.103
			C449.141,130.86,464.468,159.586,473.289,189.892z M299.182,33.346c38.671,6.976,75.745,24.082,106.925,51.346l-63.264,63.263
			C312.569,117.682,296.817,75.737,299.182,33.346z M258.844,29.727c3.499,0,6.997,0.083,10.491,0.244
			c-3.402,52.109,15.602,102.496,52.298,139.194l-65.63,65.63L107.887,86.68C151.056,48.742,205.047,29.727,258.844,29.727z
			 M86.677,107.889l148.116,148.116l-65.63,65.629c-36.771-36.772-87.192-55.693-139.188-52.298
			C27.343,212.126,46.275,153.863,86.677,107.889z M33.34,299.185c42.391-2.367,84.34,13.386,114.615,43.66L84.69,406.109
			C57.424,374.928,40.314,337.857,33.34,299.185z M189.889,473.29c-30.306-8.821-59.032-24.148-83.989-45.972l61.103-61.103
			C187.666,397.563,196,435.896,189.889,473.29z M219.218,479.724c7.996-46.25-2.065-94.98-30.618-135.105l67.404-67.404
			L404.12,425.331C351.836,471.277,283.662,489.448,219.218,479.724z M425.33,404.121L277.214,256.006l67.404-67.404
			c39.28,27.953,87.773,38.796,135.104,30.612C489.448,283.66,471.277,351.837,425.33,404.121z"/>
	</g>
</g>
</svg>
