<svg viewBox="0 0 510.141 510.141" xmlns="http://www.w3.org/2000/svg">
    <path d="M323.68 239.906c-.106-.003-.213-.007-.32-.006-4.119 0-7.472 3.326-7.499 7.451-.026 4.108 3.255 7.466 7.35 7.547.125.004.249.007.375.007 35.813 0 64.95-29.136 64.95-64.95s-29.136-64.95-64.95-64.95-64.95 29.136-64.95 64.95c0 22.245 11.207 42.7 29.979 54.72 3.485 2.232 8.125 1.217 10.36-2.272 2.233-3.489 1.216-8.127-2.272-10.361-14.444-9.248-23.067-24.981-23.067-42.087 0-27.542 22.407-49.95 49.95-49.95s49.95 22.407 49.95 49.95c-.002 27.511-22.358 49.899-49.856 49.951zM155.868 344.338c22.37 0 40.568-18.199 40.568-40.568s-18.199-40.568-40.568-40.568S115.3 281.401 115.3 303.77s18.198 40.568 40.568 40.568zm0-66.136c14.099 0 25.568 11.47 25.568 25.568s-11.47 25.568-25.568 25.568-25.568-11.47-25.568-25.568 11.469-25.568 25.568-25.568zM94.491 191.57c-15.265 0-27.685 12.419-27.685 27.685s12.419 27.685 27.685 27.685 27.685-12.419 27.685-27.685-12.42-27.685-27.685-27.685zm0 40.369c-6.994 0-12.685-5.69-12.685-12.685s5.69-12.685 12.685-12.685 12.685 5.69 12.685 12.685-5.691 12.685-12.685 12.685zM314.815 421.274c20.783 0 37.691-16.908 37.691-37.691s-16.908-37.691-37.691-37.691-37.691 16.908-37.691 37.691 16.908 37.691 37.691 37.691zm0-60.382c12.512 0 22.691 10.179 22.691 22.691s-10.179 22.691-22.691 22.691-22.691-10.179-22.691-22.691 10.179-22.691 22.691-22.691zM398.412 304.231c0-15.907-12.941-28.849-28.848-28.849s-28.849 12.941-28.849 28.849 12.941 28.849 28.849 28.849c15.907 0 28.848-12.942 28.848-28.849zm-42.697 0c0-7.636 6.212-13.849 13.849-13.849 7.636 0 13.848 6.212 13.848 13.849s-6.212 13.849-13.848 13.849-13.849-6.213-13.849-13.849z M436.052 75.342c-2.919-2.938-7.667-2.955-10.607-.037-2.939 2.919-2.955 7.668-.037 10.607 44.182 44.488 68.843 103.263 69.691 165.823-31.034 2.068-55.654 27.959-55.654 59.507 0 21.751 11.616 41.339 30.155 51.844-11.377 22.54-26.403 43.367-44.775 61.739-33.353 33.353-74.797 55.667-119.901 65.144-8.085-20.116-27.678-33.643-49.855-33.643-22.175 0-41.76 13.53-49.844 33.645-45.108-9.477-86.555-31.791-119.911-65.146C39.972 379.482 15 319.195 15 255.07c0-39.937 9.69-78.383 27.951-112.659 13.303 5.769 27.816 8.802 42.394 8.802 12.585 0 24.907-2.177 36.623-6.471 3.889-1.425 5.886-5.734 4.461-9.623s-5.734-5.887-9.623-4.461c-10.057 3.686-20.642 5.555-31.46 5.555-12.152 0-23.845-2.315-34.867-6.884 9.745-15.79 21.387-30.564 34.837-44.014 25.829-25.829 56.513-45.037 89.987-56.795.967 5.355 1.463 10.801 1.463 16.272 0 27.729-12.385 53.651-33.979 71.116-3.221 2.605-3.72 7.328-1.115 10.548 1.482 1.833 3.65 2.784 5.836 2.784 1.657 0 3.324-.546 4.712-1.669 25.132-20.328 39.546-50.5 39.546-82.779 0-7.009-.69-13.987-2.05-20.827C210.717 18.061 232.657 15 255.07 15c53.826 0 104.7 17.416 147.122 50.364 3.272 2.541 7.984 1.949 10.524-1.323 2.541-3.271 1.949-7.983-1.323-10.524C366.315 18.506 312.259 0 255.07 0 186.938 0 122.885 26.532 74.708 74.708 26.532 122.885 0 186.938 0 255.07s26.532 132.186 74.708 180.362c48.176 48.177 112.23 74.708 180.362 74.708s132.186-26.532 180.362-74.708c48.177-48.176 74.708-112.23 74.708-180.362.001-67.791-26.311-131.619-74.088-179.728zM220.444 492.668c6.458-12.878 19.732-21.341 34.626-21.341 14.895 0 28.173 8.461 34.632 21.34-11.372 1.633-22.937 2.474-34.632 2.474-11.693 0-23.256-.84-34.626-2.473zm234.002-181.426c0-23.192 17.773-42.304 40.412-44.449-1.376 28.818-7.833 56.702-18.915 82.633-13.251-8.002-21.497-22.327-21.497-38.184z"/>
</svg>