<svg xmlns="http://www.w3.org/2000/svg" viewBox="0 0 480.737 480.737">
	<path d="M349.362 1.039c-2.426-1.36-5.385-1.362-7.814-.006-3.857 2.155-5.237 7.029-3.082 10.886 40.328 72.547 40.328 160.777 0 233.324-64.431 115.906-210.622 157.635-326.528 93.204-2.441-1.38-5.426-1.381-7.869-.003-3.848 2.171-5.207 7.051-3.035 10.899 45.292 81.055 130.853 131.304 223.704 131.376 92.8-.038 178.317-50.282 223.52-131.328 68.886-123.504 24.608-279.467-98.896-348.352zm15.584 418.136c-107.501 77.541-257.507 53.253-335.048-54.248 63.167 26.385 134.267 26.385 197.434 0 130.522-54.52 192.134-204.526 137.614-335.048 20.875 15.057 39.191 33.373 54.248 54.248 77.541 107.501 53.253 257.507-54.248 335.048z"/>
</svg>