<svg xmlns="http://www.w3.org/2000/svg" viewBox="0 0 496 496">
	<path d="M471.917 266.316c-1.347-52.688-21.234-103.213-56.161-142.684l35.2-33.696c3.322-2.913 3.653-7.968.74-11.289-2.913-3.322-7.968-3.653-11.289-.74-.179.157-.35.321-.514.493l-35.2 33.672c-.8-.8-1.6-1.672-2.488-2.48-39.574-37.709-91.626-59.558-146.257-61.392 0-.072.04-.128.04-.2V16h24c4.418 0 8-3.582 8-8s-3.582-8-8-8h-64c-4.418 0-8 3.582-8 8s3.582 8 8 8h24v32.192C116.377 52.601 19.745 156.382 24.154 279.993c2.09 58.593 27.074 114.03 69.586 154.406 41.492 39.644 96.702 61.716 154.088 61.6 1.984 0 3.963-.027 5.936-.08 123.645-3.161 221.315-105.959 218.153-229.603zM253.356 479.928c-114.851 2.378-209.883-88.799-212.261-203.65-2.361-114.021 87.533-208.68 201.525-212.206 1.848-.072 3.672-.072 5.512-.072 114.875.134 207.891 93.367 207.757 208.242-.131 112.652-89.92 204.725-202.533 207.686z"/>
	<path d="M248.37 240c-6.228-.037-12.333 1.733-17.575 5.096L125.348 139.648c-3.178-3.069-8.243-2.981-11.312.197-2.994 3.1-2.994 8.015 0 11.115l105.952 105.928c-2.578 4.623-3.954 9.819-4 15.112-.106 17.779 14.222 32.277 32 32.382 17.779.106 32.277-14.222 32.382-32 .106-17.779-14.221-32.277-32-32.382zm-.382 48c-8.837 0-16-7.163-16-16s7.163-16 16-16 16 7.163 16 16-7.164 16-16 16z"/>
</svg>